<svg width="250" height="36" viewBox="0 0 250 36" fill="none" xmlns="http://www.w3.org/2000/svg">
<rect x="0.355729" y="1.13063" width="71.2885" height="34.3635" rx="6.75885" fill="white"/>
<rect x="0.355729" y="1.13063" width="71.2885" height="34.3635" rx="6.75885" stroke="#BCBEC0" stroke-width="0.711458"/>
<g clip-path="url(#clip0_2245_7047)">
<path d="M44.3712 16.6402H43.6835V16.6048H35.9999V20.0197H40.8248C40.1209 22.0076 38.2294 23.4347 35.9999 23.4347C33.171 23.4347 30.8775 21.1411 30.8775 18.3123C30.8775 15.4834 33.171 13.1898 35.9999 13.1898C37.3057 13.1898 38.4936 13.6824 39.3982 14.4871L41.813 12.0723C40.2882 10.6513 38.2486 9.7749 35.9999 9.7749C31.2851 9.7749 27.4625 13.5975 27.4625 18.3123C27.4625 23.027 31.2851 26.8496 35.9999 26.8496C40.7146 26.8496 44.5372 23.027 44.5372 18.3123C44.5372 17.7398 44.4783 17.1811 44.3712 16.6402Z" fill="#FFC107"/>
<path d="M28.4463 14.3385L31.2512 16.3956C32.0102 14.5165 33.8483 13.1898 35.9993 13.1898C37.3051 13.1898 38.493 13.6824 39.3976 14.4871L41.8124 12.0723C40.2876 10.6513 38.248 9.7749 35.9993 9.7749C32.7201 9.7749 29.8763 11.6262 28.4463 14.3385Z" fill="#FF3D00"/>
<path d="M36 26.8498C38.2052 26.8498 40.209 26.0059 41.7239 24.6335L39.0816 22.3976C38.1956 23.0713 37.1131 23.4357 36 23.4349C33.7795 23.4349 31.894 22.0189 31.1837 20.043L28.3997 22.188C29.8126 24.9528 32.682 26.8498 36 26.8498Z" fill="#4CAF50"/>
<path d="M44.3712 16.6402H43.6835V16.6047H35.9999V20.0197H40.8248C40.4881 20.9658 39.8815 21.7925 39.0802 22.3978L39.0814 22.3969L41.7237 24.6328C41.5368 24.8027 44.5372 22.5809 44.5372 18.3122C44.5372 17.7398 44.4783 17.181 44.3712 16.6402Z" fill="#1976D2"/>
</g>
<rect x="89.3557" y="1.13063" width="71.2885" height="34.3635" rx="6.75885" fill="white"/>
<rect x="89.3557" y="1.13063" width="71.2885" height="34.3635" rx="6.75885" stroke="#BCBEC0" stroke-width="0.711458"/>
<g clip-path="url(#clip1_2245_7047)">
<path fill-rule="evenodd" clip-rule="evenodd" d="M125 9.7749C120.283 9.7749 116.463 13.5954 116.463 18.3124C116.463 22.0902 118.906 25.2811 122.3 26.4124C122.727 26.4871 122.887 26.2309 122.887 26.0068C122.887 25.8041 122.876 25.1317 122.876 24.4167C120.731 24.8116 120.176 23.8938 120.006 23.4136C119.91 23.1681 119.493 22.4104 119.13 22.2076C118.832 22.0476 118.405 21.6527 119.12 21.642C119.792 21.6314 120.272 22.261 120.432 22.5171C121.201 23.8084 122.428 23.4456 122.919 23.2215C122.994 22.6665 123.218 22.293 123.463 22.0796C121.564 21.8661 119.579 21.1298 119.579 17.8642C119.579 16.9357 119.91 16.1674 120.454 15.5697C120.368 15.3563 120.07 14.4812 120.539 13.3073C120.539 13.3073 121.254 13.0832 122.887 14.1824C123.57 13.9903 124.296 13.8942 125.021 13.8942C125.747 13.8942 126.473 13.9903 127.156 14.1824C128.789 13.0725 129.504 13.3073 129.504 13.3073C129.973 14.4812 129.674 15.3563 129.589 15.5697C130.133 16.1674 130.464 16.9251 130.464 17.8642C130.464 21.1404 128.468 21.8661 126.569 22.0796C126.878 22.3464 127.145 22.8586 127.145 23.659C127.145 24.8009 127.134 25.7187 127.134 26.0068C127.134 26.2309 127.294 26.4977 127.721 26.4124C129.416 25.8401 130.889 24.7509 131.932 23.2979C132.976 21.8448 133.537 20.1012 133.538 18.3124C133.538 13.5954 129.717 9.7749 125 9.7749Z" fill="black"/>
</g>
<rect x="178.356" y="1.13063" width="71.2885" height="34.3635" rx="6.75885" fill="white"/>
<rect x="178.356" y="1.13063" width="71.2885" height="34.3635" rx="6.75885" stroke="#BCBEC0" stroke-width="0.711458"/>
<g clip-path="url(#clip2_2245_7047)">
<path d="M222.538 18.3648C222.538 13.6201 218.715 9.77393 214 9.77393C209.283 9.77499 205.46 13.6201 205.46 18.3659C205.46 22.6527 208.583 26.2065 212.664 26.8511V20.8481H210.498V18.3659H212.666V16.4716C212.666 14.3191 213.941 13.1302 215.891 13.1302C216.826 13.1302 217.802 13.2978 217.802 13.2978V15.4108H216.726C215.666 15.4108 215.335 16.0735 215.335 16.7533V18.3648H217.702L217.324 20.8471H215.334V26.85C219.415 26.2054 222.538 22.6517 222.538 18.3648Z" fill="#059BE5"/>
</g>
<defs>
<clipPath id="clip0_2245_7047">
<rect x="27.4625" y="9.7749" width="17.075" height="17.075" rx="8.5375" fill="white"/>
</clipPath>
<clipPath id="clip1_2245_7047">
<rect x="116.463" y="9.7749" width="17.075" height="17.075" rx="8.5375" fill="white"/>
</clipPath>
<clipPath id="clip2_2245_7047">
<rect x="205.463" y="9.7749" width="17.075" height="17.075" rx="8.5375" fill="white"/>
</clipPath>
</defs>
</svg>
